STARTFONT 2.1
FONT -Sun-Screen-Medium-R-Normal--12-120-72-72-M-70-ISO8859-1
SIZE 12 72 72
FONTBOUNDINGBOX 7 14 0 -4

STARTPROPERTIES 21
FONTNAME_REGISTRY ""
FOUNDRY "Sun"
FAMILY_NAME "Screen"
WEIGHT_NAME "Medium"
SLANT "R"
SETWIDTH_NAME "Normal"
ADD_STYLE_NAME ""
PIXEL_SIZE 12
POINT_SIZE 120
RESOLUTION_X 72
RESOLUTION_Y 72
SPACING "M"
AVERAGE_WIDTH 70
CHARSET_REGISTRY "ISO8859"
CHARSET_ENCODING "1"
WEIGHT 10
X_HEIGHT -1
QUAD_WIDTH 7
DEFAULT_CHAR 32
FONT_DESCENT 4
FONT_ASCENT 10
ENDPROPERTIES

CHARS 191

STARTCHAR <unknown>
ENCODING 32
SWIDTH 42 0
DWIDTH 7 0
BBX 7 14 0 -4
BITMAP
00
00
00
00
00
00
00
00
00
00
00
00
00
00
ENDCHAR

STARTCHAR <unknown>
ENCODING 33
SWIDTH 42 0
DWIDTH 7 0
BBX 7 14 0 -4
BITMAP
00
10
10
10
10
10
10
10
00
00
10
00
00
00
ENDCHAR

STARTCHAR <unknown>
ENCODING 34
SWIDTH 42 0
DWIDTH 7 0
BBX 7 14 0 -4
BITMAP
00
48
48
48
48
00
00
00
00
00
00
00
00
00
ENDCHAR

STARTCHAR <unknown>
ENCODING 35
SWIDTH 42 0
DWIDTH 7 0
BBX 7 14 0 -4
BITMAP
00
24
24
24
7E
24
48
FC
48
48
48
00
00
00
ENDCHAR

STARTCHAR <unknown>
ENCODING 36
SWIDTH 42 0
DWIDTH 7 0
BBX 7 14 0 -4
BITMAP
00
10
38
54
50
50
38
14
14
54
38
10
00
00
ENDCHAR

STARTCHAR <unknown>
ENCODING 37
SWIDTH 42 0
DWIDTH 7 0
BBX 7 14 0 -4
BITMAP
00
64
94
98
68
10
10
2C
32
52
4C
00
00
00
ENDCHAR

STARTCHAR <unknown>
ENCODING 38
SWIDTH 42 0
DWIDTH 7 0
BBX 7 14 0 -4
BITMAP
00
30
48
48
30
20
52
8C
88
88
76
00
00
00
ENDCHAR

STARTCHAR <unknown>
ENCODING 39
SWIDTH 42 0
DWIDTH 7 0
BBX 7 14 0 -4
BITMAP
00
08
08
10
20
00
00
00
00
00
00
00
00
00
ENDCHAR

STARTCHAR <unknown>
ENCODING 40
SWIDTH 42 0
DWIDTH 7 0
BBX 7 14 0 -4
BITMAP
00
08
10
10
20
20
20
20
20
10
10
08
00
00
ENDCHAR

STARTCHAR <unknown>
ENCODING 41
SWIDTH 42 0
DWIDTH 7 0
BBX 7 14 0 -4
BITMAP
00
20
10
10
08
08
08
08
08
10
10
20
00
00
ENDCHAR

STARTCHAR <unknown>
ENCODING 42
SWIDTH 42 0
DWIDTH 7 0
BBX 7 14 0 -4
BITMAP
00
00
10
54
38
38
54
10
00
00
00
00
00
00
ENDCHAR

STARTCHAR <unknown>
ENCODING 43
SWIDTH 42 0
DWIDTH 7 0
BBX 7 14 0 -4
BITMAP
00
00
00
00
10
10
7C
10
10
00
00
00
00
00
ENDCHAR

STARTCHAR <unknown>
ENCODING 44
SWIDTH 42 0
DWIDTH 7 0
BBX 7 14 0 -4
BITMAP
00
00
00
00
00
00
00
00
00
18
18
08
30
00
ENDCHAR

STARTCHAR <unknown>
ENCODING 45
SWIDTH 42 0
DWIDTH 7 0
BBX 7 14 0 -4
BITMAP
00
00
00
00
00
00
7C
00
00
00
00
00
00
00
ENDCHAR

STARTCHAR <unknown>
ENCODING 46
SWIDTH 42 0
DWIDTH 7 0
BBX 7 14 0 -4
BITMAP
00
00
00
00
00
00
00
00
00
18
18
00
00
00
ENDCHAR

STARTCHAR <unknown>
ENCODING 47
SWIDTH 42 0
DWIDTH 7 0
BBX 7 14 0 -4
BITMAP
00
04
04
08
08
10
10
20
20
40
40
00
00
00
ENDCHAR

STARTCHAR <unknown>
ENCODING 48
SWIDTH 42 0
DWIDTH 7 0
BBX 7 14 0 -4
BITMAP
00
00
18
24
24
24
24
24
24
24
18
00
00
00
ENDCHAR

STARTCHAR <unknown>
ENCODING 49
SWIDTH 42 0
DWIDTH 7 0
BBX 7 14 0 -4
BITMAP
00
00
10
30
50
10
10
10
10
10
7C
00
00
00
ENDCHAR

STARTCHAR <unknown>
ENCODING 50
SWIDTH 42 0
DWIDTH 7 0
BBX 7 14 0 -4
BITMAP
00
00
38
44
04
04
08
10
20
40
7C
00
00
00
ENDCHAR

STARTCHAR <unknown>
ENCODING 51
SWIDTH 42 0
DWIDTH 7 0
BBX 7 14 0 -4
BITMAP
00
00
38
44
04
04
18
04
04
44
38
00
00
00
ENDCHAR

STARTCHAR <unknown>
ENCODING 52
SWIDTH 42 0
DWIDTH 7 0
BBX 7 14 0 -4
BITMAP
00
00
04
0C
14
24
44
44
7E
04
04
00
00
00
ENDCHAR

STARTCHAR <unknown>
ENCODING 53
SWIDTH 42 0
DWIDTH 7 0
BBX 7 14 0 -4
BITMAP
00
00
7C
40
40
78
04
04
44
44
38
00
00
00
ENDCHAR

STARTCHAR <unknown>
ENCODING 54
SWIDTH 42 0
DWIDTH 7 0
BBX 7 14 0 -4
BITMAP
00
00
38
44
40
40
78
44
44
44
38
00
00
00
ENDCHAR

STARTCHAR <unknown>
ENCODING 55
SWIDTH 42 0
DWIDTH 7 0
BBX 7 14 0 -4
BITMAP
00
00
7C
44
04
08
08
08
10
10
10
00
00
00
ENDCHAR

STARTCHAR <unknown>
ENCODING 56
SWIDTH 42 0
DWIDTH 7 0
BBX 7 14 0 -4
BITMAP
00
00
38
44
44
44
38
44
44
44
38
00
00
00
ENDCHAR

STARTCHAR <unknown>
ENCODING 57
SWIDTH 42 0
DWIDTH 7 0
BBX 7 14 0 -4
BITMAP
00
00
38
44
44
44
3C
04
04
44
38
00
00
00
ENDCHAR

STARTCHAR <unknown>
ENCODING 58
SWIDTH 42 0
DWIDTH 7 0
BBX 7 14 0 -4
BITMAP
00
00
00
00
18
18
00
00
00
18
18
00
00
00
ENDCHAR

STARTCHAR <unknown>
ENCODING 59
SWIDTH 42 0
DWIDTH 7 0
BBX 7 14 0 -4
BITMAP
00
00
00
00
18
18
00
00
00
18
18
08
30
00
ENDCHAR

STARTCHAR <unknown>
ENCODING 60
SWIDTH 42 0
DWIDTH 7 0
BBX 7 14 0 -4
BITMAP
00
04
08
10
20
40
80
40
20
10
08
04
00
00
ENDCHAR

STARTCHAR <unknown>
ENCODING 61
SWIDTH 42 0
DWIDTH 7 0
BBX 7 14 0 -4
BITMAP
00
00
00
00
7C
00
00
00
7C
00
00
00
00
00
ENDCHAR

STARTCHAR <unknown>
ENCODING 62
SWIDTH 42 0
DWIDTH 7 0
BBX 7 14 0 -4
BITMAP
00
80
40
20
10
08
04
08
10
20
40
80
00
00
ENDCHAR

STARTCHAR <unknown>
ENCODING 63
SWIDTH 42 0
DWIDTH 7 0
BBX 7 14 0 -4
BITMAP
00
38
44
44
04
08
10
10
00
00
10
00
00
00
ENDCHAR

STARTCHAR <unknown>
ENCODING 64
SWIDTH 42 0
DWIDTH 7 0
BBX 7 14 0 -4
BITMAP
00
10
28
44
5C
54
54
5C
40
24
18
00
00
00
ENDCHAR

STARTCHAR <unknown>
ENCODING 65
SWIDTH 42 0
DWIDTH 7 0
BBX 7 14 0 -4
BITMAP
00
00
10
10
28
28
28
44
7C
44
44
00
00
00
ENDCHAR

STARTCHAR <unknown>
ENCODING 66
SWIDTH 42 0
DWIDTH 7 0
BBX 7 14 0 -4
BITMAP
00
00
70
48
48
48
78
44
44
44
78
00
00
00
ENDCHAR

STARTCHAR <unknown>
ENCODING 67
SWIDTH 42 0
DWIDTH 7 0
BBX 7 14 0 -4
BITMAP
00
00
38
44
44
40
40
40
44
44
38
00
00
00
ENDCHAR

STARTCHAR <unknown>
ENCODING 68
SWIDTH 42 0
DWIDTH 7 0
BBX 7 14 0 -4
BITMAP
00
00
70
48
44
44
44
44
44
48
70
00
00
00
ENDCHAR

STARTCHAR <unknown>
ENCODING 69
SWIDTH 42 0
DWIDTH 7 0
BBX 7 14 0 -4
BITMAP
00
00
7C
40
40
40
78
40
40
40
7C
00
00
00
ENDCHAR

STARTCHAR <unknown>
ENCODING 70
SWIDTH 42 0
DWIDTH 7 0
BBX 7 14 0 -4
BITMAP
00
00
7C
40
40
40
78
40
40
40
40
00
00
00
ENDCHAR

STARTCHAR <unknown>
ENCODING 71
SWIDTH 42 0
DWIDTH 7 0
BBX 7 14 0 -4
BITMAP
00
00
38
44
40
40
4C
44
44
4C
34
00
00
00
ENDCHAR

STARTCHAR <unknown>
ENCODING 72
SWIDTH 42 0
DWIDTH 7 0
BBX 7 14 0 -4
BITMAP
00
00
44
44
44
44
7C
44
44
44
44
00
00
00
ENDCHAR

STARTCHAR <unknown>
ENCODING 73
SWIDTH 42 0
DWIDTH 7 0
BBX 7 14 0 -4
BITMAP
00
00
7C
10
10
10
10
10
10
10
7C
00
00
00
ENDCHAR

STARTCHAR <unknown>
ENCODING 74
SWIDTH 42 0
DWIDTH 7 0
BBX 7 14 0 -4
BITMAP
00
00
3C
08
08
08
08
08
48
48
30
00
00
00
ENDCHAR

STARTCHAR <unknown>
ENCODING 75
SWIDTH 42 0
DWIDTH 7 0
BBX 7 14 0 -4
BITMAP
00
00
44
48
50
60
50
48
48
44
44
00
00
00
ENDCHAR

STARTCHAR <unknown>
ENCODING 76
SWIDTH 42 0
DWIDTH 7 0
BBX 7 14 0 -4
BITMAP
00
00
40
40
40
40
40
40
40
40
7C
00
00
00
ENDCHAR

STARTCHAR <unknown>
ENCODING 77
SWIDTH 42 0
DWIDTH 7 0
BBX 7 14 0 -4
BITMAP
00
00
84
84
CC
CC
B4
B4
84
84
84
00
00
00
ENDCHAR

STARTCHAR <unknown>
ENCODING 78
SWIDTH 42 0
DWIDTH 7 0
BBX 7 14 0 -4
BITMAP
00
00
44
64
64
54
54
4C
4C
44
44
00
00
00
ENDCHAR

STARTCHAR <unknown>
ENCODING 79
SWIDTH 42 0
DWIDTH 7 0
BBX 7 14 0 -4
BITMAP
00
00
38
44
44
44
44
44
44
44
38
00
00
00
ENDCHAR

STARTCHAR <unknown>
ENCODING 80
SWIDTH 42 0
DWIDTH 7 0
BBX 7 14 0 -4
BITMAP
00
00
78
44
44
44
78
40
40
40
40
00
00
00
ENDCHAR

STARTCHAR <unknown>
ENCODING 81
SWIDTH 42 0
DWIDTH 7 0
BBX 7 14 0 -4
BITMAP
00
00
38
44
44
44
44
44
44
44
38
10
0C
00
ENDCHAR

STARTCHAR <unknown>
ENCODING 82
SWIDTH 42 0
DWIDTH 7 0
BBX 7 14 0 -4
BITMAP
00
00
78
44
44
44
78
48
44
44
44
00
00
00
ENDCHAR

STARTCHAR <unknown>
ENCODING 83
SWIDTH 42 0
DWIDTH 7 0
BBX 7 14 0 -4
BITMAP
00
00
38
44
40
20
18
04
44
44
38
00
00
00
ENDCHAR

STARTCHAR <unknown>
ENCODING 84
SWIDTH 42 0
DWIDTH 7 0
BBX 7 14 0 -4
BITMAP
00
00
7C
10
10
10
10
10
10
10
10
00
00
00
ENDCHAR

STARTCHAR <unknown>
ENCODING 85
SWIDTH 42 0
DWIDTH 7 0
BBX 7 14 0 -4
BITMAP
00
00
44
44
44
44
44
44
44
44
38
00
00
00
ENDCHAR

STARTCHAR <unknown>
ENCODING 86
SWIDTH 42 0
DWIDTH 7 0
BBX 7 14 0 -4
BITMAP
00
00
44
44
44
28
28
28
10
10
10
00
00
00
ENDCHAR

STARTCHAR <unknown>
ENCODING 87
SWIDTH 42 0
DWIDTH 7 0
BBX 7 14 0 -4
BITMAP
00
00
82
82
82
92
54
54
54
28
28
00
00
00
ENDCHAR

STARTCHAR <unknown>
ENCODING 88
SWIDTH 42 0
DWIDTH 7 0
BBX 7 14 0 -4
BITMAP
00
00
44
44
28
28
10
28
28
44
44
00
00
00
ENDCHAR

STARTCHAR <unknown>
ENCODING 89
SWIDTH 42 0
DWIDTH 7 0
BBX 7 14 0 -4
BITMAP
00
00
44
44
44
28
10
10
10
10
10
00
00
00
ENDCHAR

STARTCHAR <unknown>
ENCODING 90
SWIDTH 42 0
DWIDTH 7 0
BBX 7 14 0 -4
BITMAP
00
00
7C
04
04
08
10
20
40
40
7C
00
00
00
ENDCHAR

STARTCHAR <unknown>
ENCODING 91
SWIDTH 42 0
DWIDTH 7 0
BBX 7 14 0 -4
BITMAP
00
3C
20
20
20
20
20
20
20
20
20
3C
00
00
ENDCHAR

STARTCHAR <unknown>
ENCODING 92
SWIDTH 42 0
DWIDTH 7 0
BBX 7 14 0 -4
BITMAP
00
40
40
20
20
10
10
08
08
04
04
00
00
00
ENDCHAR

STARTCHAR <unknown>
ENCODING 93
SWIDTH 42 0
DWIDTH 7 0
BBX 7 14 0 -4
BITMAP
00
78
08
08
08
08
08
08
08
08
08
78
00
00
ENDCHAR

STARTCHAR <unknown>
ENCODING 94
SWIDTH 42 0
DWIDTH 7 0
BBX 7 14 0 -4
BITMAP
00
00
10
38
6C
44
00
00
00
00
00
00
00
00
ENDCHAR

STARTCHAR <unknown>
ENCODING 95
SWIDTH 42 0
DWIDTH 7 0
BBX 7 14 0 -4
BITMAP
00
00
00
00
00
00
00
00
00
00
00
FC
00
00
ENDCHAR

STARTCHAR <unknown>
ENCODING 96
SWIDTH 42 0
DWIDTH 7 0
BBX 7 14 0 -4
BITMAP
00
20
20
10
08
00
00
00
00
00
00
00
00
00
ENDCHAR

STARTCHAR <unknown>
ENCODING 97
SWIDTH 42 0
DWIDTH 7 0
BBX 7 14 0 -4
BITMAP
00
00
00
00
38
44
04
3C
44
44
3C
00
00
00
ENDCHAR

STARTCHAR <unknown>
ENCODING 98
SWIDTH 42 0
DWIDTH 7 0
BBX 7 14 0 -4
BITMAP
00
00
40
40
58
64
44
44
44
64
58
00
00
00
ENDCHAR

STARTCHAR <unknown>
ENCODING 99
SWIDTH 42 0
DWIDTH 7 0
BBX 7 14 0 -4
BITMAP
00
00
00
00
38
44
40
40
40
44
38
00
00
00
ENDCHAR

STARTCHAR <unknown>
ENCODING 100
SWIDTH 42 0
DWIDTH 7 0
BBX 7 14 0 -4
BITMAP
00
00
04
04
34
4C
44
44
44
4C
34
00
00
00
ENDCHAR

STARTCHAR <unknown>
ENCODING 101
SWIDTH 42 0
DWIDTH 7 0
BBX 7 14 0 -4
BITMAP
00
00
00
00
38
44
44
7C
40
44
38
00
00
00
ENDCHAR

STARTCHAR <unknown>
ENCODING 102
SWIDTH 42 0
DWIDTH 7 0
BBX 7 14 0 -4
BITMAP
00
00
0C
10
10
7C
10
10
10
10
10
00
00
00
ENDCHAR

STARTCHAR <unknown>
ENCODING 103
SWIDTH 42 0
DWIDTH 7 0
BBX 7 14 0 -4
BITMAP
00
00
00
00
34
4C
44
44
44
4C
34
04
44
38
ENDCHAR

STARTCHAR <unknown>
ENCODING 104
SWIDTH 42 0
DWIDTH 7 0
BBX 7 14 0 -4
BITMAP
00
00
40
40
58
64
44
44
44
44
44
00
00
00
ENDCHAR

STARTCHAR <unknown>
ENCODING 105
SWIDTH 42 0
DWIDTH 7 0
BBX 7 14 0 -4
BITMAP
00
00
08
00
38
08
08
08
08
08
08
00
00
00
ENDCHAR

STARTCHAR <unknown>
ENCODING 106
SWIDTH 42 0
DWIDTH 7 0
BBX 7 14 0 -4
BITMAP
00
00
08
00
38
08
08
08
08
08
08
08
48
30
ENDCHAR

STARTCHAR <unknown>
ENCODING 107
SWIDTH 42 0
DWIDTH 7 0
BBX 7 14 0 -4
BITMAP
00
00
40
40
48
50
60
60
50
48
44
00
00
00
ENDCHAR

STARTCHAR <unknown>
ENCODING 108
SWIDTH 42 0
DWIDTH 7 0
BBX 7 14 0 -4
BITMAP
00
00
38
08
08
08
08
08
08
08
08
00
00
00
ENDCHAR

STARTCHAR <unknown>
ENCODING 109
SWIDTH 42 0
DWIDTH 7 0
BBX 7 14 0 -4
BITMAP
00
00
00
00
68
54
54
54
54
54
54
00
00
00
ENDCHAR

STARTCHAR <unknown>
ENCODING 110
SWIDTH 42 0
DWIDTH 7 0
BBX 7 14 0 -4
BITMAP
00
00
00
00
58
64
44
44
44
44
44
00
00
00
ENDCHAR

STARTCHAR <unknown>
ENCODING 111
SWIDTH 42 0
DWIDTH 7 0
BBX 7 14 0 -4
BITMAP
00
00
00
00
38
44
44
44
44
44
38
00
00
00
ENDCHAR

STARTCHAR <unknown>
ENCODING 112
SWIDTH 42 0
DWIDTH 7 0
BBX 7 14 0 -4
BITMAP
00
00
00
00
58
64
44
44
44
64
58
40
40
40
ENDCHAR

STARTCHAR <unknown>
ENCODING 113
SWIDTH 42 0
DWIDTH 7 0
BBX 7 14 0 -4
BITMAP
00
00
00
00
34
4C
44
44
44
4C
34
04
04
04
ENDCHAR

STARTCHAR <unknown>
ENCODING 114
SWIDTH 42 0
DWIDTH 7 0
BBX 7 14 0 -4
BITMAP
00
00
00
00
58
64
40
40
40
40
40
00
00
00
ENDCHAR

STARTCHAR <unknown>
ENCODING 115
SWIDTH 42 0
DWIDTH 7 0
BBX 7 14 0 -4
BITMAP
00
00
00
00
38
44
40
38
04
44
38
00
00
00
ENDCHAR

STARTCHAR <unknown>
ENCODING 116
SWIDTH 42 0
DWIDTH 7 0
BBX 7 14 0 -4
BITMAP
00
00
10
10
7C
10
10
10
10
10
0C
00
00
00
ENDCHAR

STARTCHAR <unknown>
ENCODING 117
SWIDTH 42 0
DWIDTH 7 0
BBX 7 14 0 -4
BITMAP
00
00
00
00
44
44
44
44
44
4C
34
00
00
00
ENDCHAR

STARTCHAR <unknown>
ENCODING 118
SWIDTH 42 0
DWIDTH 7 0
BBX 7 14 0 -4
BITMAP
00
00
00
00
44
44
44
28
28
10
10
00
00
00
ENDCHAR

STARTCHAR <unknown>
ENCODING 119
SWIDTH 42 0
DWIDTH 7 0
BBX 7 14 0 -4
BITMAP
00
00
00
00
44
44
54
54
54
54
28
00
00
00
ENDCHAR

STARTCHAR <unknown>
ENCODING 120
SWIDTH 42 0
DWIDTH 7 0
BBX 7 14 0 -4
BITMAP
00
00
00
00
44
44
28
10
28
44
44
00
00
00
ENDCHAR

STARTCHAR <unknown>
ENCODING 121
SWIDTH 42 0
DWIDTH 7 0
BBX 7 14 0 -4
BITMAP
00
00
00
00
44
44
24
24
14
18
08
08
50
20
ENDCHAR

STARTCHAR <unknown>
ENCODING 122
SWIDTH 42 0
DWIDTH 7 0
BBX 7 14 0 -4
BITMAP
00
00
00
00
7C
04
08
10
20
40
7C
00
00
00
ENDCHAR

STARTCHAR <unknown>
ENCODING 123
SWIDTH 42 0
DWIDTH 7 0
BBX 7 14 0 -4
BITMAP
0C
10
10
10
10
10
60
10
10
10
10
10
0C
00
ENDCHAR

STARTCHAR <unknown>
ENCODING 124
SWIDTH 42 0
DWIDTH 7 0
BBX 7 14 0 -4
BITMAP
10
10
10
10
10
10
10
10
10
10
10
10
10
00
ENDCHAR

STARTCHAR <unknown>
ENCODING 125
SWIDTH 42 0
DWIDTH 7 0
BBX 7 14 0 -4
BITMAP
60
10
10
10
10
10
0C
10
10
10
10
10
60
00
ENDCHAR

STARTCHAR <unknown>
ENCODING 126
SWIDTH 42 0
DWIDTH 7 0
BBX 7 14 0 -4
BITMAP
00
00
24
54
48
00
00
00
00
00
00
00
00
00
ENDCHAR

STARTCHAR <unknown>
ENCODING 160
SWIDTH 42 0
DWIDTH 7 0
BBX 7 14 0 -4
BITMAP
00
00
00
00
00
00
00
00
00
00
00
00
00
00
ENDCHAR

STARTCHAR <unknown>
ENCODING 161
SWIDTH 42 0
DWIDTH 7 0
BBX 7 14 0 -4
BITMAP
00
10
00
00
10
10
10
10
10
10
10
00
00
00
ENDCHAR

STARTCHAR <unknown>
ENCODING 162
SWIDTH 42 0
DWIDTH 7 0
BBX 7 14 0 -4
BITMAP
00
10
10
38
54
50
50
50
54
38
10
10
00
00
ENDCHAR

STARTCHAR <unknown>
ENCODING 163
SWIDTH 42 0
DWIDTH 7 0
BBX 7 14 0 -4
BITMAP
00
18
20
20
20
F8
20
20
20
60
FC
00
00
00
ENDCHAR

STARTCHAR <unknown>
ENCODING 164
SWIDTH 42 0
DWIDTH 7 0
BBX 7 14 0 -4
BITMAP
00
82
7C
44
44
44
44
7C
82
00
00
00
00
00
ENDCHAR

STARTCHAR <unknown>
ENCODING 165
SWIDTH 42 0
DWIDTH 7 0
BBX 7 14 0 -4
BITMAP
00
00
44
44
44
28
10
10
7C
10
10
00
00
00
ENDCHAR

STARTCHAR <unknown>
ENCODING 166
SWIDTH 42 0
DWIDTH 7 0
BBX 7 14 0 -4
BITMAP
10
10
10
10
10
10
00
10
10
10
10
10
10
00
ENDCHAR

STARTCHAR <unknown>
ENCODING 167
SWIDTH 42 0
DWIDTH 7 0
BBX 7 14 0 -4
BITMAP
38
44
40
38
44
44
44
38
04
44
38
00
00
00
ENDCHAR

STARTCHAR <unknown>
ENCODING 168
SWIDTH 42 0
DWIDTH 7 0
BBX 7 14 0 -4
BITMAP
00
00
44
44
00
00
00
00
00
00
00
00
00
00
ENDCHAR

STARTCHAR <unknown>
ENCODING 169
SWIDTH 42 0
DWIDTH 7 0
BBX 7 14 0 -4
BITMAP
00
00
7C
82
BA
A2
A2
A2
BA
82
7C
00
00
00
ENDCHAR

STARTCHAR <unknown>
ENCODING 170
SWIDTH 42 0
DWIDTH 7 0
BBX 7 14 0 -4
BITMAP
18
04
1C
24
1C
00
3C
00
00
00
00
00
00
00
ENDCHAR

STARTCHAR <unknown>
ENCODING 171
SWIDTH 42 0
DWIDTH 7 0
BBX 7 14 0 -4
BITMAP
00
24
28
48
50
90
50
48
28
24
00
00
00
00
ENDCHAR

STARTCHAR <unknown>
ENCODING 172
SWIDTH 42 0
DWIDTH 7 0
BBX 7 14 0 -4
BITMAP
00
00
7C
04
04
00
00
00
00
00
00
00
00
00
ENDCHAR

STARTCHAR <unknown>
ENCODING 173
SWIDTH 42 0
DWIDTH 7 0
BBX 7 14 0 -4
BITMAP
00
00
00
00
00
00
7C
00
00
00
00
00
00
00
ENDCHAR

STARTCHAR <unknown>
ENCODING 174
SWIDTH 42 0
DWIDTH 7 0
BBX 7 14 0 -4
BITMAP
00
00
7C
82
BA
AA
BA
AA
AA
82
7C
00
00
00
ENDCHAR

STARTCHAR <unknown>
ENCODING 175
SWIDTH 42 0
DWIDTH 7 0
BBX 7 14 0 -4
BITMAP
00
00
7C
00
00
00
00
00
00
00
00
00
00
00
ENDCHAR

STARTCHAR <unknown>
ENCODING 176
SWIDTH 42 0
DWIDTH 7 0
BBX 7 14 0 -4
BITMAP
18
24
24
18
00
00
00
00
00
00
00
00
00
00
ENDCHAR

STARTCHAR <unknown>
ENCODING 177
SWIDTH 42 0
DWIDTH 7 0
BBX 7 14 0 -4
BITMAP
00
00
00
10
10
7C
10
10
00
7C
00
00
00
00
ENDCHAR

STARTCHAR <unknown>
ENCODING 178
SWIDTH 42 0
DWIDTH 7 0
BBX 7 14 0 -4
BITMAP
18
04
04
08
1C
00
00
00
00
00
00
00
00
00
ENDCHAR

STARTCHAR <unknown>
ENCODING 179
SWIDTH 42 0
DWIDTH 7 0
BBX 7 14 0 -4
BITMAP
18
04
18
04
18
00
00
00
00
00
00
00
00
00
ENDCHAR

STARTCHAR <unknown>
ENCODING 180
SWIDTH 42 0
DWIDTH 7 0
BBX 7 14 0 -4
BITMAP
04
08
10
20
00
00
00
00
00
00
00
00
00
00
ENDCHAR

STARTCHAR <unknown>
ENCODING 181
SWIDTH 42 0
DWIDTH 7 0
BBX 7 14 0 -4
BITMAP
00
00
00
44
44
44
44
44
44
4C
72
40
00
00
ENDCHAR

STARTCHAR <unknown>
ENCODING 182
SWIDTH 42 0
DWIDTH 7 0
BBX 7 14 0 -4
BITMAP
3E
74
74
74
74
3C
14
14
14
14
00
00
00
00
ENDCHAR

STARTCHAR <unknown>
ENCODING 183
SWIDTH 42 0
DWIDTH 7 0
BBX 7 14 0 -4
BITMAP
00
00
00
18
3C
3C
18
00
00
00
00
00
00
00
ENDCHAR

STARTCHAR <unknown>
ENCODING 184
SWIDTH 42 0
DWIDTH 7 0
BBX 7 14 0 -4
BITMAP
00
00
00
00
00
00
00
00
00
00
10
18
04
38
ENDCHAR

STARTCHAR <unknown>
ENCODING 185
SWIDTH 42 0
DWIDTH 7 0
BBX 7 14 0 -4
BITMAP
08
18
08
08
1C
00
00
00
00
00
00
00
00
00
ENDCHAR

STARTCHAR <unknown>
ENCODING 186
SWIDTH 42 0
DWIDTH 7 0
BBX 7 14 0 -4
BITMAP
18
24
24
24
18
00
3C
00
00
00
00
00
00
00
ENDCHAR

STARTCHAR <unknown>
ENCODING 187
SWIDTH 42 0
DWIDTH 7 0
BBX 7 14 0 -4
BITMAP
00
90
50
48
28
24
28
48
50
90
00
00
00
00
ENDCHAR

STARTCHAR <unknown>
ENCODING 188
SWIDTH 42 0
DWIDTH 7 0
BBX 7 14 0 -4
BITMAP
40
C4
44
48
E8
10
24
28
54
5C
84
00
00
00
ENDCHAR

STARTCHAR <unknown>
ENCODING 189
SWIDTH 42 0
DWIDTH 7 0
BBX 7 14 0 -4
BITMAP
40
C4
44
48
E8
10
28
34
44
48
9C
00
00
00
ENDCHAR

STARTCHAR <unknown>
ENCODING 190
SWIDTH 42 0
DWIDTH 7 0
BBX 7 14 0 -4
BITMAP
C0
24
C4
28
C8
10
24
28
54
5C
84
00
00
00
ENDCHAR

STARTCHAR <unknown>
ENCODING 191
SWIDTH 42 0
DWIDTH 7 0
BBX 7 14 0 -4
BITMAP
10
00
00
10
10
20
40
44
44
38
00
00
00
00
ENDCHAR

STARTCHAR <unknown>
ENCODING 192
SWIDTH 42 0
DWIDTH 7 0
BBX 7 14 0 -4
BITMAP
10
08
00
10
10
28
28
44
7C
44
44
00
00
00
ENDCHAR

STARTCHAR <unknown>
ENCODING 193
SWIDTH 42 0
DWIDTH 7 0
BBX 7 14 0 -4
BITMAP
10
20
00
10
10
28
28
44
7C
44
44
00
00
00
ENDCHAR

STARTCHAR <unknown>
ENCODING 194
SWIDTH 42 0
DWIDTH 7 0
BBX 7 14 0 -4
BITMAP
10
28
44
10
10
28
28
44
7C
44
44
00
00
00
ENDCHAR

STARTCHAR <unknown>
ENCODING 195
SWIDTH 42 0
DWIDTH 7 0
BBX 7 14 0 -4
BITMAP
64
98
00
10
10
28
28
44
7C
44
44
00
00
00
ENDCHAR

STARTCHAR <unknown>
ENCODING 196
SWIDTH 42 0
DWIDTH 7 0
BBX 7 14 0 -4
BITMAP
44
44
00
10
10
28
28
44
7C
44
44
00
00
00
ENDCHAR

STARTCHAR <unknown>
ENCODING 197
SWIDTH 42 0
DWIDTH 7 0
BBX 7 14 0 -4
BITMAP
38
44
38
10
10
28
28
44
7C
44
44
00
00
00
ENDCHAR

STARTCHAR <unknown>
ENCODING 198
SWIDTH 42 0
DWIDTH 7 0
BBX 7 14 0 -4
BITMAP
00
00
3C
30
50
50
5C
90
F0
90
9C
00
00
00
ENDCHAR

STARTCHAR <unknown>
ENCODING 199
SWIDTH 42 0
DWIDTH 7 0
BBX 7 14 0 -4
BITMAP
00
00
38
44
44
40
40
44
44
44
38
10
0C
38
ENDCHAR

STARTCHAR <unknown>
ENCODING 200
SWIDTH 42 0
DWIDTH 7 0
BBX 7 14 0 -4
BITMAP
20
10
00
7C
40
40
78
40
40
40
7C
00
00
00
ENDCHAR

STARTCHAR <unknown>
ENCODING 201
SWIDTH 42 0
DWIDTH 7 0
BBX 7 14 0 -4
BITMAP
08
10
00
7C
40
40
78
40
40
40
7C
00
00
00
ENDCHAR

STARTCHAR <unknown>
ENCODING 202
SWIDTH 42 0
DWIDTH 7 0
BBX 7 14 0 -4
BITMAP
10
28
00
7C
40
40
78
40
40
40
7C
00
00
00
ENDCHAR

STARTCHAR <unknown>
ENCODING 203
SWIDTH 42 0
DWIDTH 7 0
BBX 7 14 0 -4
BITMAP
44
44
00
7C
40
40
78
40
40
40
7C
00
00
00
ENDCHAR

STARTCHAR <unknown>
ENCODING 204
SWIDTH 42 0
DWIDTH 7 0
BBX 7 14 0 -4
BITMAP
20
10
00
7C
10
10
10
10
10
10
7C
00
00
00
ENDCHAR

STARTCHAR <unknown>
ENCODING 205
SWIDTH 42 0
DWIDTH 7 0
BBX 7 14 0 -4
BITMAP
08
10
00
7C
10
10
10
10
10
10
7C
00
00
00
ENDCHAR

STARTCHAR <unknown>
ENCODING 206
SWIDTH 42 0
DWIDTH 7 0
BBX 7 14 0 -4
BITMAP
10
28
00
7C
10
10
10
10
10
10
7C
00
00
00
ENDCHAR

STARTCHAR <unknown>
ENCODING 207
SWIDTH 42 0
DWIDTH 7 0
BBX 7 14 0 -4
BITMAP
44
44
00
7C
10
10
10
10
10
10
7C
00
00
00
ENDCHAR

STARTCHAR <unknown>
ENCODING 208
SWIDTH 42 0
DWIDTH 7 0
BBX 7 14 0 -4
BITMAP
00
00
70
48
44
44
E4
44
44
48
70
00
00
00
ENDCHAR

STARTCHAR <unknown>
ENCODING 209
SWIDTH 42 0
DWIDTH 7 0
BBX 7 14 0 -4
BITMAP
64
98
00
44
64
64
54
54
4C
4C
44
00
00
00
ENDCHAR

STARTCHAR <unknown>
ENCODING 210
SWIDTH 42 0
DWIDTH 7 0
BBX 7 14 0 -4
BITMAP
20
10
08
38
44
44
44
44
44
44
38
00
00
00
ENDCHAR

STARTCHAR <unknown>
ENCODING 211
SWIDTH 42 0
DWIDTH 7 0
BBX 7 14 0 -4
BITMAP
08
10
20
38
44
44
44
44
44
44
38
00
00
00
ENDCHAR

STARTCHAR <unknown>
ENCODING 212
SWIDTH 42 0
DWIDTH 7 0
BBX 7 14 0 -4
BITMAP
10
28
44
38
44
44
44
44
44
44
38
00
00
00
ENDCHAR

STARTCHAR <unknown>
ENCODING 213
SWIDTH 42 0
DWIDTH 7 0
BBX 7 14 0 -4
BITMAP
64
98
00
38
44
44
44
44
44
44
38
00
00
00
ENDCHAR

STARTCHAR <unknown>
ENCODING 214
SWIDTH 42 0
DWIDTH 7 0
BBX 7 14 0 -4
BITMAP
44
44
00
38
44
44
44
44
44
44
38
00
00
00
ENDCHAR

STARTCHAR <unknown>
ENCODING 215
SWIDTH 42 0
DWIDTH 7 0
BBX 7 14 0 -4
BITMAP
00
00
00
00
00
44
28
10
28
44
00
00
00
00
ENDCHAR

STARTCHAR <unknown>
ENCODING 216
SWIDTH 42 0
DWIDTH 7 0
BBX 7 14 0 -4
BITMAP
00
00
3A
44
4C
4C
54
64
64
44
B8
00
00
00
ENDCHAR

STARTCHAR <unknown>
ENCODING 217
SWIDTH 42 0
DWIDTH 7 0
BBX 7 14 0 -4
BITMAP
40
20
10
44
44
44
44
44
44
44
38
00
00
00
ENDCHAR

STARTCHAR <unknown>
ENCODING 218
SWIDTH 42 0
DWIDTH 7 0
BBX 7 14 0 -4
BITMAP
04
08
10
44
44
44
44
44
44
44
38
00
00
00
ENDCHAR

STARTCHAR <unknown>
ENCODING 219
SWIDTH 42 0
DWIDTH 7 0
BBX 7 14 0 -4
BITMAP
10
28
44
00
44
44
44
44
44
44
38
00
00
00
ENDCHAR

STARTCHAR <unknown>
ENCODING 220
SWIDTH 42 0
DWIDTH 7 0
BBX 7 14 0 -4
BITMAP
44
44
00
44
44
44
44
44
44
44
38
00
00
00
ENDCHAR

STARTCHAR <unknown>
ENCODING 221
SWIDTH 42 0
DWIDTH 7 0
BBX 7 14 0 -4
BITMAP
04
08
10
44
44
44
28
10
10
10
10
00
00
00
ENDCHAR

STARTCHAR <unknown>
ENCODING 222
SWIDTH 42 0
DWIDTH 7 0
BBX 7 14 0 -4
BITMAP
F0
40
78
44
44
78
40
40
40
40
F0
00
00
00
ENDCHAR

STARTCHAR <unknown>
ENCODING 223
SWIDTH 42 0
DWIDTH 7 0
BBX 7 14 0 -4
BITMAP
00
00
18
24
44
48
44
42
42
4C
00
00
00
00
ENDCHAR

STARTCHAR <unknown>
ENCODING 224
SWIDTH 42 0
DWIDTH 7 0
BBX 7 14 0 -4
BITMAP
20
10
08
00
38
44
04
3C
44
44
3C
00
00
00
ENDCHAR

STARTCHAR <unknown>
ENCODING 225
SWIDTH 42 0
DWIDTH 7 0
BBX 7 14 0 -4
BITMAP
08
10
20
00
38
44
04
3C
44
44
3C
00
00
00
ENDCHAR

STARTCHAR <unknown>
ENCODING 226
SWIDTH 42 0
DWIDTH 7 0
BBX 7 14 0 -4
BITMAP
10
28
44
00
38
44
04
3C
44
44
3C
00
00
00
ENDCHAR

STARTCHAR <unknown>
ENCODING 227
SWIDTH 42 0
DWIDTH 7 0
BBX 7 14 0 -4
BITMAP
00
64
98
00
38
44
04
3C
44
44
3C
00
00
00
ENDCHAR

STARTCHAR <unknown>
ENCODING 228
SWIDTH 42 0
DWIDTH 7 0
BBX 7 14 0 -4
BITMAP
00
44
44
00
38
44
04
3C
44
44
3C
00
00
00
ENDCHAR

STARTCHAR <unknown>
ENCODING 229
SWIDTH 42 0
DWIDTH 7 0
BBX 7 14 0 -4
BITMAP
00
38
44
44
38
44
04
3C
44
44
3C
00
00
00
ENDCHAR

STARTCHAR <unknown>
ENCODING 230
SWIDTH 42 0
DWIDTH 7 0
BBX 7 14 0 -4
BITMAP
00
00
00
00
68
94
14
7C
90
94
78
00
00
00
ENDCHAR

STARTCHAR <unknown>
ENCODING 231
SWIDTH 42 0
DWIDTH 7 0
BBX 7 14 0 -4
BITMAP
00
00
00
00
38
44
40
40
40
44
38
10
0C
38
ENDCHAR

STARTCHAR <unknown>
ENCODING 232
SWIDTH 42 0
DWIDTH 7 0
BBX 7 14 0 -4
BITMAP
20
10
08
00
38
44
44
7C
40
44
38
00
00
00
ENDCHAR

STARTCHAR <unknown>
ENCODING 233
SWIDTH 42 0
DWIDTH 7 0
BBX 7 14 0 -4
BITMAP
08
10
20
00
38
44
44
7C
40
44
38
00
00
00
ENDCHAR

STARTCHAR <unknown>
ENCODING 234
SWIDTH 42 0
DWIDTH 7 0
BBX 7 14 0 -4
BITMAP
10
28
44
00
38
44
44
7C
40
44
38
00
00
00
ENDCHAR

STARTCHAR <unknown>
ENCODING 235
SWIDTH 42 0
DWIDTH 7 0
BBX 7 14 0 -4
BITMAP
00
44
44
00
38
44
44
7C
40
44
38
00
00
00
ENDCHAR

STARTCHAR <unknown>
ENCODING 236
SWIDTH 42 0
DWIDTH 7 0
BBX 7 14 0 -4
BITMAP
20
10
08
00
38
08
08
08
08
08
08
00
00
00
ENDCHAR

STARTCHAR <unknown>
ENCODING 237
SWIDTH 42 0
DWIDTH 7 0
BBX 7 14 0 -4
BITMAP
08
10
20
00
38
08
08
08
08
08
08
00
00
00
ENDCHAR

STARTCHAR <unknown>
ENCODING 238
SWIDTH 42 0
DWIDTH 7 0
BBX 7 14 0 -4
BITMAP
10
28
44
00
38
08
08
08
08
08
08
00
00
00
ENDCHAR

STARTCHAR <unknown>
ENCODING 239
SWIDTH 42 0
DWIDTH 7 0
BBX 7 14 0 -4
BITMAP
00
44
44
00
38
08
08
08
08
08
08
00
00
00
ENDCHAR

STARTCHAR <unknown>
ENCODING 240
SWIDTH 42 0
DWIDTH 7 0
BBX 7 14 0 -4
BITMAP
00
48
30
30
48
04
3C
44
44
44
38
00
00
00
ENDCHAR

STARTCHAR <unknown>
ENCODING 241
SWIDTH 42 0
DWIDTH 7 0
BBX 7 14 0 -4
BITMAP
00
64
98
00
58
64
44
44
44
44
44
00
00
00
ENDCHAR

STARTCHAR <unknown>
ENCODING 242
SWIDTH 42 0
DWIDTH 7 0
BBX 7 14 0 -4
BITMAP
20
10
08
00
38
44
44
44
44
44
38
00
00
00
ENDCHAR

STARTCHAR <unknown>
ENCODING 243
SWIDTH 42 0
DWIDTH 7 0
BBX 7 14 0 -4
BITMAP
08
10
20
00
38
44
44
44
44
44
38
00
00
00
ENDCHAR

STARTCHAR <unknown>
ENCODING 244
SWIDTH 42 0
DWIDTH 7 0
BBX 7 14 0 -4
BITMAP
10
28
44
00
38
44
44
44
44
44
38
00
00
00
ENDCHAR

STARTCHAR <unknown>
ENCODING 245
SWIDTH 42 0
DWIDTH 7 0
BBX 7 14 0 -4
BITMAP
00
64
98
00
38
44
44
44
44
44
38
00
00
00
ENDCHAR

STARTCHAR <unknown>
ENCODING 246
SWIDTH 42 0
DWIDTH 7 0
BBX 7 14 0 -4
BITMAP
00
44
44
00
38
44
44
44
44
44
38
00
00
00
ENDCHAR

STARTCHAR <unknown>
ENCODING 247
SWIDTH 42 0
DWIDTH 7 0
BBX 7 14 0 -4
BITMAP
00
00
00
10
10
00
7C
00
10
10
00
00
00
00
ENDCHAR

STARTCHAR <unknown>
ENCODING 248
SWIDTH 42 0
DWIDTH 7 0
BBX 7 14 0 -4
BITMAP
00
00
00
3A
44
4C
54
54
64
44
B8
00
00
00
ENDCHAR

STARTCHAR <unknown>
ENCODING 249
SWIDTH 42 0
DWIDTH 7 0
BBX 7 14 0 -4
BITMAP
20
10
08
00
44
44
44
44
44
4C
34
00
00
00
ENDCHAR

STARTCHAR <unknown>
ENCODING 250
SWIDTH 42 0
DWIDTH 7 0
BBX 7 14 0 -4
BITMAP
08
10
20
00
44
44
44
44
44
4C
34
00
00
00
ENDCHAR

STARTCHAR <unknown>
ENCODING 251
SWIDTH 42 0
DWIDTH 7 0
BBX 7 14 0 -4
BITMAP
10
28
44
00
44
44
44
44
44
4C
34
00
00
00
ENDCHAR

STARTCHAR <unknown>
ENCODING 252
SWIDTH 42 0
DWIDTH 7 0
BBX 7 14 0 -4
BITMAP
00
44
44
00
44
44
44
44
44
4C
34
00
00
00
ENDCHAR

STARTCHAR <unknown>
ENCODING 253
SWIDTH 42 0
DWIDTH 7 0
BBX 7 14 0 -4
BITMAP
04
08
10
00
44
44
24
24
14
18
08
08
50
20
ENDCHAR

STARTCHAR <unknown>
ENCODING 254
SWIDTH 42 0
DWIDTH 7 0
BBX 7 14 0 -4
BITMAP
00
00
00
C0
40
58
64
44
44
64
58
40
40
E0
ENDCHAR

STARTCHAR <unknown>
ENCODING 255
SWIDTH 42 0
DWIDTH 7 0
BBX 7 14 0 -4
BITMAP
00
44
44
00
44
44
24
24
14
18
08
08
50
20
ENDCHAR
ENDFONT
